<mxfile host="Electron" modified="2023-12-26T08:19:43.296Z" agent="Mozilla/5.0 (Windows NT 10.0; Win64; x64) AppleWebKit/537.36 (KHTML, like Gecko) draw.io/21.6.5 Chrome/114.0.5735.243 Electron/25.3.1 Safari/537.36" etag="qncgnU1PGdvBJfvrJmlw" version="21.6.5" type="device">
  <diagram name="Page-1" id="XSFAnaezTLoBHuwI1Jaw">
    <mxGraphModel dx="548" dy="386" grid="1" gridSize="10" guides="1" tooltips="1" connect="1" arrows="1" fold="1" page="1" pageScale="1" pageWidth="850" pageHeight="1100" math="0" shadow="0">
      <root>
        <mxCell id="0" />
        <mxCell id="1" parent="0" />
        <mxCell id="MChLZxGnrur5kQ3lDwo1-2" value="&lt;pre style=&quot;line-height: 150%; font-size: 14px;&quot;&gt;&lt;font face=&quot;Cascadia Mono&quot; style=&quot;font-size: 14px;&quot;&gt;&lt;font style=&quot;font-size: 14px;&quot;&gt;&lt;font color=&quot;#c586c0&quot; style=&quot;font-size: 14px;&quot;&gt;#include&lt;/font&gt; &lt;font color=&quot;#c39178&quot; style=&quot;font-size: 14px;&quot;&gt;&amp;lt;iostream&amp;gt;&lt;/font&gt;&lt;/font&gt;&lt;/font&gt;&lt;/pre&gt;&lt;pre style=&quot;line-height: 150%; font-size: 14px;&quot;&gt;&lt;font face=&quot;Cascadia Mono&quot; style=&quot;font-size: 14px;&quot;&gt;&lt;font style=&quot;font-size: 14px;&quot;&gt;&lt;br style=&quot;font-size: 14px;&quot;&gt;&lt;/font&gt;&lt;font style=&quot;font-size: 14px;&quot;&gt;&lt;font color=&quot;#569cd6&quot; style=&quot;font-size: 14px;&quot;&gt;int&lt;/font&gt; &lt;font color=&quot;#880000&quot; style=&quot;font-size: 14px;&quot;&gt;add&lt;/font&gt;(&lt;font color=&quot;#569cd6&quot; style=&quot;font-size: 14px;&quot;&gt;int&lt;/font&gt; x, &lt;font color=&quot;#569cd6&quot; style=&quot;font-size: 14px;&quot;&gt;int&lt;/font&gt; y)&lt;br style=&quot;font-size: 14px;&quot;&gt;&lt;/font&gt;&lt;font style=&quot;font-size: 14px;&quot;&gt;{&lt;br style=&quot;font-size: 14px;&quot;&gt;&lt;/font&gt;&lt;font style=&quot;font-size: 14px;&quot;&gt;&amp;nbsp; &amp;nbsp; &lt;font color=&quot;#569cd6&quot; style=&quot;font-size: 14px;&quot;&gt;return&lt;/font&gt; x + y;&lt;br style=&quot;font-size: 14px;&quot;&gt;&lt;/font&gt;&lt;font style=&quot;font-size: 14px;&quot;&gt;}&lt;/font&gt;&lt;/font&gt;&lt;/pre&gt;&lt;pre style=&quot;line-height: 150%; font-size: 14px;&quot;&gt;&lt;font face=&quot;Cascadia Mono&quot; style=&quot;font-size: 14px;&quot;&gt;&lt;font style=&quot;font-size: 14px;&quot;&gt;&lt;font color=&quot;#569cd6&quot; style=&quot;font-size: 14px;&quot;&gt;int&lt;/font&gt; &lt;font color=&quot;#880000&quot; style=&quot;font-size: 14px;&quot;&gt;main&lt;/font&gt;()&lt;br style=&quot;font-size: 14px;&quot;&gt;&lt;/font&gt;&lt;font style=&quot;font-size: 14px;&quot;&gt;{&lt;br style=&quot;font-size: 14px;&quot;&gt;&lt;/font&gt;&lt;font style=&quot;font-size: 14px;&quot;&gt;&amp;nbsp; &amp;nbsp; std::cout &amp;lt;&amp;lt; add(&lt;font color=&quot;#c2bb32&quot; style=&quot;font-size: 14px;&quot;&gt;4&lt;/font&gt;, &lt;font color=&quot;#c2bb32&quot; style=&quot;font-size: 14px;&quot;&gt;5&lt;/font&gt;) &amp;lt;&amp;lt; std::endl;&lt;br style=&quot;font-size: 14px;&quot;&gt;&lt;/font&gt;&lt;font style=&quot;font-size: 14px;&quot;&gt;&amp;nbsp; &amp;nbsp; &lt;font color=&quot;#569cd6&quot; style=&quot;font-size: 14px;&quot;&gt;return&lt;/font&gt; &lt;font color=&quot;#c2bb32&quot; style=&quot;font-size: 14px;&quot;&gt;0&lt;/font&gt;;&lt;br style=&quot;font-size: 14px;&quot;&gt;&lt;/font&gt;&lt;font style=&quot;font-size: 14px;&quot;&gt;}&lt;/font&gt;&lt;/font&gt;&lt;/pre&gt;" style="text;html=1;align=left;verticalAlign=middle;resizable=0;points=[];autosize=1;strokeColor=none;fillColor=none;fontFamily=Cascadia Mono;fontSize=14;" parent="1" vertex="1">
          <mxGeometry x="200" y="100" width="350" height="310" as="geometry" />
        </mxCell>
        <mxCell id="MChLZxGnrur5kQ3lDwo1-22" value="" style="endArrow=classic;html=1;rounded=0;exitX=0.314;exitY=0.484;exitDx=0;exitDy=0;exitPerimeter=0;entryX=0.457;entryY=0.71;entryDx=0;entryDy=0;entryPerimeter=0;" parent="1" edge="1" target="MChLZxGnrur5kQ3lDwo1-2" source="MChLZxGnrur5kQ3lDwo1-2">
          <mxGeometry width="50" height="50" relative="1" as="geometry">
            <mxPoint x="320" y="250" as="sourcePoint" />
            <mxPoint x="350" y="310" as="targetPoint" />
          </mxGeometry>
        </mxCell>
        <mxCell id="MChLZxGnrur5kQ3lDwo1-29" value="&lt;font style=&quot;font-size: 14px;&quot;&gt;返回值为 9&lt;/font&gt;" style="edgeLabel;html=1;align=center;verticalAlign=middle;resizable=0;points=[];" parent="MChLZxGnrur5kQ3lDwo1-22" vertex="1" connectable="0">
          <mxGeometry x="-0.4982" y="-2" relative="1" as="geometry">
            <mxPoint x="9" y="11" as="offset" />
          </mxGeometry>
        </mxCell>
        <mxCell id="MChLZxGnrur5kQ3lDwo1-18" value="" style="endArrow=classic;html=1;rounded=0;exitX=0.514;exitY=0.71;exitDx=0;exitDy=0;exitPerimeter=0;entryX=0.286;entryY=0.258;entryDx=0;entryDy=0;entryPerimeter=0;" parent="1" edge="1" target="MChLZxGnrur5kQ3lDwo1-2" source="MChLZxGnrur5kQ3lDwo1-2">
          <mxGeometry width="50" height="50" relative="1" as="geometry">
            <mxPoint x="440" y="300" as="sourcePoint" />
            <mxPoint x="380" y="180" as="targetPoint" />
            <Array as="points">
              <mxPoint x="380" y="160" />
              <mxPoint x="300" y="160" />
            </Array>
          </mxGeometry>
        </mxCell>
        <mxCell id="MChLZxGnrur5kQ3lDwo1-27" value="&lt;font style=&quot;font-size: 14px;&quot;&gt;x = 4&lt;/font&gt;" style="edgeLabel;html=1;align=center;verticalAlign=middle;resizable=0;points=[];" parent="MChLZxGnrur5kQ3lDwo1-18" vertex="1" connectable="0">
          <mxGeometry x="-0.55" y="2" relative="1" as="geometry">
            <mxPoint x="2" y="-40" as="offset" />
          </mxGeometry>
        </mxCell>
        <mxCell id="MChLZxGnrur5kQ3lDwo1-21" value="" style="endArrow=classic;html=1;rounded=0;entryX=0.457;entryY=0.258;entryDx=0;entryDy=0;entryPerimeter=0;" parent="1" target="MChLZxGnrur5kQ3lDwo1-2" edge="1">
          <mxGeometry width="50" height="50" relative="1" as="geometry">
            <mxPoint x="400" y="320" as="sourcePoint" />
            <mxPoint x="393.45000000000005" y="190.28999999999996" as="targetPoint" />
            <Array as="points">
              <mxPoint x="400" y="150" />
              <mxPoint x="360" y="150" />
            </Array>
          </mxGeometry>
        </mxCell>
        <mxCell id="MChLZxGnrur5kQ3lDwo1-28" value="&lt;font style=&quot;font-size: 14px;&quot;&gt;y = 5&lt;/font&gt;" style="edgeLabel;html=1;align=center;verticalAlign=middle;resizable=0;points=[];" parent="MChLZxGnrur5kQ3lDwo1-21" vertex="1" connectable="0">
          <mxGeometry x="-0.0984" y="-2" relative="1" as="geometry">
            <mxPoint x="-2" y="43" as="offset" />
          </mxGeometry>
        </mxCell>
      </root>
    </mxGraphModel>
  </diagram>
</mxfile>
